<?xml version="1.0" encoding="UTF-8"?>
<svg width="1000px" height="500px" viewBox="0 0 1000 500" version="1.1" xmlns="http://www.w3.org/2000/svg" xmlns:xlink="http://www.w3.org/1999/xlink">
    <!-- Generator: Sketch 55.2 (78181) - https://sketchapp.com -->
    <title>Artboard</title>
    <desc>Created with Sketch.</desc>
    <defs>
        <circle id="path-1" cx="500" cy="250" r="215"></circle>
        <filter x="-9.8%" y="-9.8%" width="119.5%" height="119.5%" filterUnits="objectBoundingBox" id="filter-2">
            <feOffset dx="0" dy="0" in="SourceAlpha" result="shadowOffsetOuter1"></feOffset>
            <feGaussianBlur stdDeviation="14" in="shadowOffsetOuter1" result="shadowBlurOuter1"></feGaussianBlur>
            <feColorMatrix values="0 0 0 0 0   0 0 0 0 0   0 0 0 0 0  0 0 0 0.5 0" type="matrix" in="shadowBlurOuter1"></feColorMatrix>
        </filter>
    </defs>
    <g id="Artboard" stroke="none" stroke-width="1" fill="none" fill-rule="evenodd">
        <rect id="Rectangle" fill="#263238" x="0" y="0" width="1000" height="500"></rect>
        <g id="path-1">
            <use fill="black" fill-opacity="1" filter="url(#filter-2)" xlink:href="#path-1"></use>
            <use fill="#263238" fill-rule="evenodd" xlink:href="#path-1"></use>
        </g>
        <path d="M373,221.035199 L330.700651,245.500224 L373,269.450195 L363.628615,284 L313,252.839731 L313,238.289479 L363.889371,207 L373,221.035199 L373,221.035199 Z M687,237.610118 L687,252.336023 L636.012253,283.594877 L626.729786,269.644444 L669.089214,244.972847 L614.178844,213.326033 L572.081348,300 L556,292.636823 L610.91037,180 L626.860979,187.362728 L621.762613,197.825552 L687,237.610118 L687,237.610118 Z" id="Shape" fill="#8FD2CE" fill-rule="nonzero"></path>
        <path d="M448.932377,223.628405 C452.977011,230.047796 455,239.151751 455,250.941634 C455,258.103352 453.945697,264.5 451.83709,270.133399 C449.728484,275.765888 446.694224,280.176633 442.735656,283.363813 C438.776191,286.551448 434.086066,288.145721 428.663486,288.145721 C422.036885,288.145721 416.614306,285.744078 412.397541,280.940792 L412.397541,312.773022 L392,315 L392,216.357977 L410.07377,216.357977 L410.977459,224.0869 C413.64594,220.680934 416.63627,218.148292 419.949795,216.488975 C423.263768,214.829658 426.598809,214 429.954918,214 C438.561475,214 444.887295,217.209468 448.932377,223.628405 Z M413,237.191733 L413,266.788872 C414.42515,268.902986 415.912737,270.467467 417.464072,271.48048 C419.01497,272.493035 420.795971,273 422.808383,273 C426.497006,273 429.284431,271.26026 431.170659,267.780322 C433.056886,264.301301 434,258.729271 434,251.066066 C434,242.785786 433.161677,237.038038 431.48503,233.822823 C429.808383,230.608066 427.293413,229 423.94012,229 C419.748503,228.999541 416.101796,231.730272 413,237.191733 L413,237.191733 Z M536,220.225819 C531.500727,222.063528 524.88049,222.982382 516.141092,222.982382 C520.640366,224.995111 523.993976,227.401634 526.200571,230.201952 C528.407167,233.002271 529.510014,236.590178 529.510014,240.965676 C529.510014,245.428683 528.299,249.432263 525.876072,252.976415 C523.453144,256.520568 520.035084,259.299465 515.622344,261.311738 C511.209154,263.324466 506.103698,264.331286 500.305526,264.331286 C497.450382,264.331286 494.767404,264.068301 492.258393,263.543241 C491.565677,263.893737 491.024845,264.440674 490.635897,265.184053 C490.246498,265.927887 490.051798,266.693599 490.051798,267.481189 C490.051798,268.793838 490.549364,269.822535 491.544495,270.56637 C492.539626,271.310205 494.551071,271.682122 497.580182,271.682122 L509.002558,271.682122 C514.194547,271.682122 518.780804,272.557221 522.761329,274.30742 C526.741403,276.058075 529.813781,278.464142 531.97711,281.527446 C534.140439,284.590294 535.222103,288.046481 535.222103,291.896919 C535.222103,299.160244 532.085276,304.826513 525.811623,308.89527 C519.537969,312.964938 510.386187,315 498.358079,315 C489.791297,315 483.063795,314.103023 478.174222,312.308613 C473.285099,310.515115 469.867039,307.999204 467.920494,304.760881 C465.973498,301.523013 465,297.454256 465,292.553699 L483.171962,292.553699 C483.171962,294.741448 483.582994,296.447436 484.405059,297.672575 C485.227124,298.897714 486.763088,299.816113 489.0134,300.429594 C491.262811,301.041708 494.551071,301.347993 498.878179,301.347993 C504.9355,301.347993 509.110725,300.648369 511.403853,299.248666 C513.696982,297.848051 514.843546,295.878621 514.843546,293.341745 C514.843546,291.241506 513.999848,289.556028 512.312001,288.287589 C510.625055,287.01824 508.137227,286.383792 504.848516,286.383792 L493.945339,286.383792 C486.850071,286.383792 481.528283,285.093477 477.980423,282.511933 C474.432564,279.929934 472.658635,276.626434 472.658635,272.601432 C472.658635,269.975678 473.329267,267.503978 474.67053,265.184964 C476.011794,262.865951 477.89344,260.91931 480.316368,259.343675 C475.98971,256.980907 472.874517,254.202922 470.970787,251.008353 C469.067058,247.814696 468.115193,243.941925 468.115193,239.391864 C468.115193,234.228321 469.413191,229.721559 472.009185,225.871577 C474.60518,222.020684 478.239572,219.067679 482.911912,217.011196 C487.585153,214.954256 492.906941,213.926014 498.877729,213.926014 C505.800381,214.101034 511.684184,213.422832 516.530041,211.891408 C521.376348,210.359984 526.308287,208.062848 531.327661,205 L536,220.225819 L536,220.225819 Z M491.786977,230.199938 C489.928992,232.33323 489,235.222527 489,238.866438 C489,242.689049 489.950597,245.666307 491.851791,247.800062 C493.752985,249.932891 496.302313,251 499.499775,251 C502.870523,251 505.46306,249.955576 507.277386,247.866264 C509.092162,245.777416 510,242.689049 510,238.599776 C510,230.866129 506.500075,227 499.499775,227 C496.215895,227.000463 493.644962,228.067109 491.786977,230.199938 L491.786977,230.199938 Z" id="Shape" fill="#FFD47E" fill-rule="nonzero"></path>
    </g>
</svg>