<?xml version="1.0" encoding="UTF-8"?>
<svg width="1024px" height="1024px" viewBox="0 0 1024 1024" version="1.1" xmlns="http://www.w3.org/2000/svg" xmlns:xlink="http://www.w3.org/1999/xlink">
    <!-- Generator: Sketch 42 (36781) - http://www.bohemiancoding.com/sketch -->
    <title>Logo</title>
    <desc>Created with Sketch.</desc>
    <defs>
        <circle id="path-1" cx="512" cy="512" r="475"></circle>
        <filter x="-50%" y="-50%" width="200%" height="200%" filterUnits="objectBoundingBox" id="filter-2">
            <feOffset dx="0" dy="12" in="SourceAlpha" result="shadowOffsetOuter1"></feOffset>
            <feGaussianBlur stdDeviation="6.5" in="shadowOffsetOuter1" result="shadowBlurOuter1"></feGaussianBlur>
            <feColorMatrix values="0 0 0 0 0   0 0 0 0 0   0 0 0 0 0  0 0 0 0.5 0" type="matrix" in="shadowBlurOuter1"></feColorMatrix>
        </filter>
    </defs>
    <g id="Page-1" stroke="none" stroke-width="1" fill="none" fill-rule="evenodd">
        <g id="Logo" fill-rule="nonzero">
            <g id="b_1_">
                <use fill="black" fill-opacity="1" filter="url(#filter-2)" xlink:href="#path-1"></use>
                <use fill="#263238" fill-rule="evenodd" xlink:href="#path-1"></use>
            </g>
            <path d="M232.928,445.848 L139.328,500.568 L232.928,554.136 L212.191,586.679 L100.16,516.984 L100.16,484.44 L212.768,414.456 L232.928,445.848 L232.928,445.848 Z M924.128,484.152 L924.128,516.985 L811.809,586.68 L791.361,555.576 L884.673,500.568 L763.713,430.008 L670.978,623.257 L635.553,606.84 L756.513,355.704 L791.65,372.12 L780.419,395.448 L924.128,484.152 L924.128,484.152 Z" id="Shape" fill="#8FD2CE"></path>
            <path d="M399.968,454.056 C408.991,468.169 413.504,488.184 413.504,514.104 C413.504,529.849 411.152,543.912 406.448,556.297 C401.744,568.68 394.975,578.377 386.144,585.384 C377.311,592.392 366.848,595.897 354.751,595.897 C339.968,595.897 327.871,590.617 318.464,580.057 L318.464,650.04 L272.96,654.936 L272.96,438.072 L313.28,438.072 L315.296,455.064 C321.249,447.576 327.92,442.008 335.312,438.36 C342.705,434.712 350.145,432.888 357.632,432.888 C376.832,432.888 390.944,439.944 399.968,454.056 Z M318.464,484.44 L318.464,548.951 C321.728,553.559 325.135,556.969 328.688,559.177 C332.24,561.384 336.319,562.489 340.928,562.489 C349.376,562.489 355.76,558.697 360.08,551.112 C364.4,543.529 366.56,531.384 366.56,514.681 C366.56,496.633 364.64,484.105 360.8,477.097 C356.96,470.09 351.2,466.585 343.52,466.585 C333.92,466.584 325.568,472.536 318.464,484.44 L318.464,484.44 Z M592.063,447 C582.08,451.032 567.391,453.048 548,453.048 C557.983,457.464 565.424,462.744 570.32,468.888 C575.216,475.032 577.663,482.904 577.663,492.504 C577.663,502.296 574.976,511.08 569.6,518.856 C564.224,526.632 556.64,532.729 546.849,537.144 C537.057,541.56 525.729,543.769 512.864,543.769 C506.529,543.769 500.576,543.192 495.009,542.04 C493.472,542.809 492.272,544.009 491.409,545.64 C490.545,547.272 490.113,548.952 490.113,550.68 C490.113,553.56 491.217,555.817 493.425,557.449 C495.633,559.081 500.096,559.897 506.817,559.897 L532.161,559.897 C543.681,559.897 553.857,561.817 562.689,565.657 C571.52,569.498 578.337,574.777 583.137,581.498 C587.937,588.218 590.337,595.801 590.337,604.249 C590.337,620.185 583.377,632.617 569.457,641.544 C555.537,650.473 535.231,654.938 508.543,654.938 C489.535,654.938 474.608,652.97 463.759,649.033 C452.911,645.098 445.327,639.578 441.008,632.473 C436.688,625.369 434.528,616.442 434.528,605.69 L474.848,605.69 C474.848,610.49 475.76,614.233 477.584,616.921 C479.408,619.609 482.816,621.624 487.809,622.97 C492.8,624.313 500.096,624.985 509.697,624.985 C523.137,624.985 532.401,623.45 537.489,620.379 C542.577,617.306 545.121,612.985 545.121,607.419 C545.121,602.811 543.249,599.113 539.504,596.33 C535.761,593.545 530.241,592.153 522.944,592.153 L498.752,592.153 C483.009,592.153 471.201,589.322 463.329,583.658 C455.457,577.993 451.521,570.745 451.521,561.914 C451.521,556.153 453.009,550.73 455.985,545.642 C458.961,540.554 463.136,536.283 468.512,532.826 C458.912,527.642 452,521.547 447.776,514.538 C443.552,507.531 441.44,499.034 441.44,489.051 C441.44,477.722 444.32,467.834 450.08,459.387 C455.84,450.938 463.904,444.459 474.271,439.947 C484.64,435.434 496.448,433.178 509.696,433.178 C525.056,433.562 538.111,432.074 548.863,428.714 C559.616,425.354 570.559,420.314 581.696,413.594 L592.063,447 L592.063,447 Z M493.712,469.751 C489.584,474.359 487.52,480.6 487.52,488.471 C487.52,496.728 489.632,503.159 493.856,507.768 C498.08,512.375 503.744,514.68 510.848,514.68 C518.337,514.68 524.097,512.424 528.128,507.911 C532.16,503.399 534.177,496.728 534.177,487.895 C534.177,471.19 526.401,462.839 510.848,462.839 C503.552,462.84 497.84,465.144 493.712,469.751 L493.712,469.751 Z" id="Shape" fill="#FFD47E"></path>
        </g>
    </g>
</svg>