<svg width="20px" height="48px" viewBox="0 0 20 48" version="1.1" xmlns="http://www.w3.org/2000/svg" xmlns:xlink="http://www.w3.org/1999/xlink">
    <g stroke="none" stroke-width="1" fill="none" fill-rule="evenodd">
        <path d="M18.56,23.345641 L16.1148718,23.345641 L15.294359,29.8441026 L17.345641,29.8441026 L17.345641,33.2574359 L14.8348718,33.2574359 L14.2112821,38 L9.92820513,38 L10.5517949,33.2574359 L7.43384615,33.2574359 L6.81025641,38 L2.52717949,38 L3.11794872,33.2574359 L1.16512821,33.2574359 L1.16512821,29.8441026 L3.5774359,29.8441026 L4.43076923,23.345641 L2.37948718,23.345641 L2.37948718,19.9158974 L4.89025641,19.9158974 L5.48102564,15.2553846 L9.79692308,15.2553846 L9.15692308,19.9158974 L12.2912821,19.9158974 L12.9148718,15.2553846 L17.1979487,15.2553846 L16.574359,19.9158974 L18.56,19.9158974 L18.56,23.345641 Z M8.71384615,23.345641 L7.86051282,29.8441026 L10.9784615,29.8441026 L11.8317949,23.345641 L8.71384615,23.345641 Z" fill="currentColor" fill-rule="nonzero"></path>
    </g>
</svg>