<svg width="20px" height="48px" viewBox="0 0 20 48" version="1.1" xmlns="http://www.w3.org/2000/svg" xmlns:xlink="http://www.w3.org/1999/xlink">
    <g stroke="none" stroke-width="1" fill="none" fill-rule="evenodd">
        <path d="M17.9528205,23.0338462 L15.0482051,23.0338462 L14.08,30.3035897 L16.7384615,30.3035897 L16.7384615,32.4369231 L13.7682051,32.4369231 L13.0789744,38 L10.7158974,38 L11.454359,32.4369231 L6.67897436,32.4369231 L5.95692308,38 L3.59384615,38 L4.33230769,32.4369231 L1.73948718,32.4369231 L1.73948718,30.3035897 L4.61128205,30.3035897 L5.61230769,23.0338462 L2.95384615,23.0338462 L2.95384615,20.8841026 L5.89128205,20.8841026 L6.61333333,15.4030769 L8.97641026,15.4030769 L8.18871795,20.8841026 L13.0133333,20.8841026 L13.7353846,15.4030769 L16.0984615,15.4030769 L15.3271795,20.8841026 L17.9528205,20.8841026 L17.9528205,23.0338462 Z M7.92615385,23.0338462 L6.95794872,30.3035897 L11.7333333,30.3035897 L12.734359,23.0338462 L7.92615385,23.0338462 Z" fill="currentColor" fill-rule="nonzero"></path>
    </g>
</svg>