<svg width="40px" height="48px" viewBox="0 0 40 48" version="1.1" xmlns="http://www.w3.org/2000/svg" xmlns:xlink="http://www.w3.org/1999/xlink">
    <g stroke="none" stroke-width="1" fill="none" fill-rule="evenodd">
        <path d="M20.0205128,23.345641 L16.1148718,23.345641 L15.294359,29.8441026 L20.0205128,29.8441026 L20.0205128,33.2574359 L14.8348718,33.2574359 L14.2112821,38 L9.92820513,38 L10.5517949,33.2574359 L7.43384615,33.2574359 L6.81025641,38 L2.52717949,38 L3.11794872,33.2574359 L1.16512821,33.2574359 L1.16512821,29.8441026 L3.5774359,29.8441026 L4.43076923,23.345641 L2.37948718,23.345641 L2.37948718,19.9158974 L4.89025641,19.9158974 L5.48102564,15.2553846 L9.79692308,15.2553846 L9.15692308,19.9158974 L12.2912821,19.9158974 L12.9148718,15.2553846 L17.1979487,15.2553846 L16.574359,19.9158974 L20.0205128,19.9158974 L20.0205128,23.345641 Z M8.71384615,23.345641 L7.86051282,29.8441026 L10.9784615,29.8441026 L11.8317949,23.345641 L8.71384615,23.345641 Z M38.2523077,23.345641 L35.8071795,23.345641 L34.9866667,29.8441026 L37.0379487,29.8441026 L37.0379487,33.2574359 L34.5271795,33.2574359 L33.9035897,38 L29.6205128,38 L30.2441026,33.2574359 L27.1261538,33.2574359 L26.5025641,38 L22.2194872,38 L22.8102564,33.2574359 L19.3641026,33.2574359 L19.3641026,29.8441026 L23.2697436,29.8441026 L24.1230769,23.345641 L19.3641026,23.345641 L19.3641026,19.9158974 L24.5825641,19.9158974 L25.1733333,15.2553846 L29.4892308,15.2553846 L28.8492308,19.9158974 L31.9835897,19.9158974 L32.6071795,15.2553846 L36.8902564,15.2553846 L36.2666667,19.9158974 L38.2523077,19.9158974 L38.2523077,23.345641 Z M28.4061538,23.345641 L27.5528205,29.8441026 L30.6707692,29.8441026 L31.5241026,23.345641 L28.4061538,23.345641 Z" fill="currentColor" fill-rule="nonzero"></path>
    </g>
</svg>