<svg width="60px" height="48px" viewBox="0 0 60 48" version="1.1" xmlns="http://www.w3.org/2000/svg" xmlns:xlink="http://www.w3.org/1999/xlink">
    <g stroke="none" stroke-width="1" fill="none" fill-rule="evenodd">
        <path d="M20.0205128,23.0338462 L15.0482051,23.0338462 L14.08,30.3035897 L20.0205128,30.3035897 L20.0205128,32.4369231 L13.7682051,32.4369231 L13.0789744,38 L10.7158974,38 L11.454359,32.4369231 L6.67897436,32.4369231 L5.95692308,38 L3.59384615,38 L4.33230769,32.4369231 L1.73948718,32.4369231 L1.73948718,30.3035897 L4.61128205,30.3035897 L5.61230769,23.0338462 L2.95384615,23.0338462 L2.95384615,20.8841026 L5.89128205,20.8841026 L6.61333333,15.4030769 L8.97641026,15.4030769 L8.18871795,20.8841026 L13.0133333,20.8841026 L13.7353846,15.4030769 L16.0984615,15.4030769 L15.3271795,20.8841026 L20.0205128,20.8841026 L20.0205128,23.0338462 Z M7.92615385,23.0338462 L6.95794872,30.3035897 L11.7333333,30.3035897 L12.734359,23.0338462 L7.92615385,23.0338462 Z M39.7128205,23.0338462 L34.7405128,23.0338462 L33.7723077,30.3035897 L39.7128205,30.3035897 L39.7128205,32.4369231 L33.4605128,32.4369231 L32.7712821,38 L30.4082051,38 L31.1466667,32.4369231 L26.3712821,32.4369231 L25.6492308,38 L23.2861538,38 L24.0246154,32.4369231 L19.3641026,32.4369231 L19.3641026,30.3035897 L24.3035897,30.3035897 L25.3046154,23.0338462 L19.3641026,23.0338462 L19.3641026,20.8841026 L25.5835897,20.8841026 L26.305641,15.4030769 L28.6687179,15.4030769 L27.8810256,20.8841026 L32.705641,20.8841026 L33.4276923,15.4030769 L35.7907692,15.4030769 L35.0194872,20.8841026 L39.7128205,20.8841026 L39.7128205,23.0338462 Z M27.6184615,23.0338462 L26.6502564,30.3035897 L31.425641,30.3035897 L32.4266667,23.0338462 L27.6184615,23.0338462 Z M57.3374359,23.0338462 L54.4328205,23.0338462 L53.4646154,30.3035897 L56.1230769,30.3035897 L56.1230769,32.4369231 L53.1528205,32.4369231 L52.4635897,38 L50.1005128,38 L50.8389744,32.4369231 L46.0635897,32.4369231 L45.3415385,38 L42.9784615,38 L43.7169231,32.4369231 L39.0564103,32.4369231 L39.0564103,30.3035897 L43.9958974,30.3035897 L44.9969231,23.0338462 L39.0564103,23.0338462 L39.0564103,20.8841026 L45.2758974,20.8841026 L45.9979487,15.4030769 L48.3610256,15.4030769 L47.5733333,20.8841026 L52.3979487,20.8841026 L53.12,15.4030769 L55.4830769,15.4030769 L54.7117949,20.8841026 L57.3374359,20.8841026 L57.3374359,23.0338462 Z M47.3107692,23.0338462 L46.3425641,30.3035897 L51.1179487,30.3035897 L52.1189744,23.0338462 L47.3107692,23.0338462 Z" fill="currentColor" fill-rule="nonzero"></path>
    </g>
</svg>