<svg width="99px" height="48px" viewBox="0 0 99 48" version="1.1" xmlns="http://www.w3.org/2000/svg" xmlns:xlink="http://www.w3.org/1999/xlink">
    <g stroke="none" stroke-width="1" fill="none" fill-rule="evenodd">
        <path d="M20.0205128,23.0338462 L15.0482051,23.0338462 L14.08,30.3035897 L20.0205128,30.3035897 L20.0205128,32.4369231 L13.7682051,32.4369231 L13.0789744,38 L10.7158974,38 L11.454359,32.4369231 L6.67897436,32.4369231 L5.95692308,38 L3.59384615,38 L4.33230769,32.4369231 L1.73948718,32.4369231 L1.73948718,30.3035897 L4.61128205,30.3035897 L5.61230769,23.0338462 L2.95384615,23.0338462 L2.95384615,20.8841026 L5.89128205,20.8841026 L6.61333333,15.4030769 L8.97641026,15.4030769 L8.18871795,20.8841026 L13.0133333,20.8841026 L13.7353846,15.4030769 L16.0984615,15.4030769 L15.3271795,20.8841026 L20.0205128,20.8841026 L20.0205128,23.0338462 Z M7.92615385,23.0338462 L6.95794872,30.3035897 L11.7333333,30.3035897 L12.734359,23.0338462 L7.92615385,23.0338462 Z M39.7128205,23.0338462 L34.7405128,23.0338462 L33.7723077,30.3035897 L39.7128205,30.3035897 L39.7128205,32.4369231 L33.4605128,32.4369231 L32.7712821,38 L30.4082051,38 L31.1466667,32.4369231 L26.3712821,32.4369231 L25.6492308,38 L23.2861538,38 L24.0246154,32.4369231 L19.3641026,32.4369231 L19.3641026,30.3035897 L24.3035897,30.3035897 L25.3046154,23.0338462 L19.3641026,23.0338462 L19.3641026,20.8841026 L25.5835897,20.8841026 L26.305641,15.4030769 L28.6687179,15.4030769 L27.8810256,20.8841026 L32.705641,20.8841026 L33.4276923,15.4030769 L35.7907692,15.4030769 L35.0194872,20.8841026 L39.7128205,20.8841026 L39.7128205,23.0338462 Z M27.6184615,23.0338462 L26.6502564,30.3035897 L31.425641,30.3035897 L32.4266667,23.0338462 L27.6184615,23.0338462 Z M59.4051282,23.0338462 L54.4328205,23.0338462 L53.4646154,30.3035897 L59.4051282,30.3035897 L59.4051282,32.4369231 L53.1528205,32.4369231 L52.4635897,38 L50.1005128,38 L50.8389744,32.4369231 L46.0635897,32.4369231 L45.3415385,38 L42.9784615,38 L43.7169231,32.4369231 L39.0564103,32.4369231 L39.0564103,30.3035897 L43.9958974,30.3035897 L44.9969231,23.0338462 L39.0564103,23.0338462 L39.0564103,20.8841026 L45.2758974,20.8841026 L45.9979487,15.4030769 L48.3610256,15.4030769 L47.5733333,20.8841026 L52.3979487,20.8841026 L53.12,15.4030769 L55.4830769,15.4030769 L54.7117949,20.8841026 L59.4051282,20.8841026 L59.4051282,23.0338462 Z M47.3107692,23.0338462 L46.3425641,30.3035897 L51.1179487,30.3035897 L52.1189744,23.0338462 L47.3107692,23.0338462 Z M79.0974359,23.0338462 L74.1251282,23.0338462 L73.1569231,30.3035897 L79.0974359,30.3035897 L79.0974359,32.4369231 L72.8451282,32.4369231 L72.1558974,38 L69.7928205,38 L70.5312821,32.4369231 L65.7558974,32.4369231 L65.0338462,38 L62.6707692,38 L63.4092308,32.4369231 L58.7487179,32.4369231 L58.7487179,30.3035897 L63.6882051,30.3035897 L64.6892308,23.0338462 L58.7487179,23.0338462 L58.7487179,20.8841026 L64.9682051,20.8841026 L65.6902564,15.4030769 L68.0533333,15.4030769 L67.265641,20.8841026 L72.0902564,20.8841026 L72.8123077,15.4030769 L75.1753846,15.4030769 L74.4041026,20.8841026 L79.0974359,20.8841026 L79.0974359,23.0338462 Z M67.0030769,23.0338462 L66.0348718,30.3035897 L70.8102564,30.3035897 L71.8112821,23.0338462 L67.0030769,23.0338462 Z M96.7220513,23.0338462 L93.8174359,23.0338462 L92.8492308,30.3035897 L95.5076923,30.3035897 L95.5076923,32.4369231 L92.5374359,32.4369231 L91.8482051,38 L89.4851282,38 L90.2235897,32.4369231 L85.4482051,32.4369231 L84.7261538,38 L82.3630769,38 L83.1015385,32.4369231 L78.4410256,32.4369231 L78.4410256,30.3035897 L83.3805128,30.3035897 L84.3815385,23.0338462 L78.4410256,23.0338462 L78.4410256,20.8841026 L84.6605128,20.8841026 L85.3825641,15.4030769 L87.745641,15.4030769 L86.9579487,20.8841026 L91.7825641,20.8841026 L92.5046154,15.4030769 L94.8676923,15.4030769 L94.0964103,20.8841026 L96.7220513,20.8841026 L96.7220513,23.0338462 Z M86.6953846,23.0338462 L85.7271795,30.3035897 L90.5025641,30.3035897 L91.5035897,23.0338462 L86.6953846,23.0338462 Z" fill="currentColor" fill-rule="nonzero"></path>
    </g>
</svg>