<svg width="119px" height="48px" viewBox="0 0 119 48" version="1.1" xmlns="http://www.w3.org/2000/svg" xmlns:xlink="http://www.w3.org/1999/xlink">
    <g stroke="none" stroke-width="1" fill="none" fill-rule="evenodd">
        <path d="M20.0205128,23.345641 L16.1148718,23.345641 L15.294359,29.8441026 L20.0205128,29.8441026 L20.0205128,33.2574359 L14.8348718,33.2574359 L14.2112821,38 L9.92820513,38 L10.5517949,33.2574359 L7.43384615,33.2574359 L6.81025641,38 L2.52717949,38 L3.11794872,33.2574359 L1.16512821,33.2574359 L1.16512821,29.8441026 L3.5774359,29.8441026 L4.43076923,23.345641 L2.37948718,23.345641 L2.37948718,19.9158974 L4.89025641,19.9158974 L5.48102564,15.2553846 L9.79692308,15.2553846 L9.15692308,19.9158974 L12.2912821,19.9158974 L12.9148718,15.2553846 L17.1979487,15.2553846 L16.574359,19.9158974 L20.0205128,19.9158974 L20.0205128,23.345641 Z M8.71384615,23.345641 L7.86051282,29.8441026 L10.9784615,29.8441026 L11.8317949,23.345641 L8.71384615,23.345641 Z M39.7128205,23.345641 L35.8071795,23.345641 L34.9866667,29.8441026 L39.7128205,29.8441026 L39.7128205,33.2574359 L34.5271795,33.2574359 L33.9035897,38 L29.6205128,38 L30.2441026,33.2574359 L27.1261538,33.2574359 L26.5025641,38 L22.2194872,38 L22.8102564,33.2574359 L19.3641026,33.2574359 L19.3641026,29.8441026 L23.2697436,29.8441026 L24.1230769,23.345641 L19.3641026,23.345641 L19.3641026,19.9158974 L24.5825641,19.9158974 L25.1733333,15.2553846 L29.4892308,15.2553846 L28.8492308,19.9158974 L31.9835897,19.9158974 L32.6071795,15.2553846 L36.8902564,15.2553846 L36.2666667,19.9158974 L39.7128205,19.9158974 L39.7128205,23.345641 Z M28.4061538,23.345641 L27.5528205,29.8441026 L30.6707692,29.8441026 L31.5241026,23.345641 L28.4061538,23.345641 Z M59.4051282,23.345641 L55.4994872,23.345641 L54.6789744,29.8441026 L59.4051282,29.8441026 L59.4051282,33.2574359 L54.2194872,33.2574359 L53.5958974,38 L49.3128205,38 L49.9364103,33.2574359 L46.8184615,33.2574359 L46.1948718,38 L41.9117949,38 L42.5025641,33.2574359 L39.0564103,33.2574359 L39.0564103,29.8441026 L42.9620513,29.8441026 L43.8153846,23.345641 L39.0564103,23.345641 L39.0564103,19.9158974 L44.2748718,19.9158974 L44.865641,15.2553846 L49.1815385,15.2553846 L48.5415385,19.9158974 L51.6758974,19.9158974 L52.2994872,15.2553846 L56.5825641,15.2553846 L55.9589744,19.9158974 L59.4051282,19.9158974 L59.4051282,23.345641 Z M48.0984615,23.345641 L47.2451282,29.8441026 L50.3630769,29.8441026 L51.2164103,23.345641 L48.0984615,23.345641 Z M79.0974359,23.345641 L75.1917949,23.345641 L74.3712821,29.8441026 L79.0974359,29.8441026 L79.0974359,33.2574359 L73.9117949,33.2574359 L73.2882051,38 L69.0051282,38 L69.6287179,33.2574359 L66.5107692,33.2574359 L65.8871795,38 L61.6041026,38 L62.1948718,33.2574359 L58.7487179,33.2574359 L58.7487179,29.8441026 L62.654359,29.8441026 L63.5076923,23.345641 L58.7487179,23.345641 L58.7487179,19.9158974 L63.9671795,19.9158974 L64.5579487,15.2553846 L68.8738462,15.2553846 L68.2338462,19.9158974 L71.3682051,19.9158974 L71.9917949,15.2553846 L76.2748718,15.2553846 L75.6512821,19.9158974 L79.0974359,19.9158974 L79.0974359,23.345641 Z M67.7907692,23.345641 L66.9374359,29.8441026 L70.0553846,29.8441026 L70.9087179,23.345641 L67.7907692,23.345641 Z M98.7897436,23.345641 L94.8841026,23.345641 L94.0635897,29.8441026 L98.7897436,29.8441026 L98.7897436,33.2574359 L93.6041026,33.2574359 L92.9805128,38 L88.6974359,38 L89.3210256,33.2574359 L86.2030769,33.2574359 L85.5794872,38 L81.2964103,38 L81.8871795,33.2574359 L78.4410256,33.2574359 L78.4410256,29.8441026 L82.3466667,29.8441026 L83.2,23.345641 L78.4410256,23.345641 L78.4410256,19.9158974 L83.6594872,19.9158974 L84.2502564,15.2553846 L88.5661538,15.2553846 L87.9261538,19.9158974 L91.0605128,19.9158974 L91.6841026,15.2553846 L95.9671795,15.2553846 L95.3435897,19.9158974 L98.7897436,19.9158974 L98.7897436,23.345641 Z M87.4830769,23.345641 L86.6297436,29.8441026 L89.7476923,29.8441026 L90.6010256,23.345641 L87.4830769,23.345641 Z M117.021538,23.345641 L114.57641,23.345641 L113.755897,29.8441026 L115.807179,29.8441026 L115.807179,33.2574359 L113.29641,33.2574359 L112.672821,38 L108.389744,38 L109.013333,33.2574359 L105.895385,33.2574359 L105.271795,38 L100.988718,38 L101.579487,33.2574359 L98.1333333,33.2574359 L98.1333333,29.8441026 L102.038974,29.8441026 L102.892308,23.345641 L98.1333333,23.345641 L98.1333333,19.9158974 L103.351795,19.9158974 L103.942564,15.2553846 L108.258462,15.2553846 L107.618462,19.9158974 L110.752821,19.9158974 L111.37641,15.2553846 L115.659487,15.2553846 L115.035897,19.9158974 L117.021538,19.9158974 L117.021538,23.345641 Z M107.175385,23.345641 L106.322051,29.8441026 L109.44,29.8441026 L110.293333,23.345641 L107.175385,23.345641 Z" fill="currentColor" fill-rule="nonzero"></path>
    </g>
</svg>